<?xml version="1.0" encoding="UTF-8" standalone="no"?>
<svg
   xmlns:dc="http://purl.org/dc/elements/1.1/"
   xmlns:cc="http://creativecommons.org/ns#"
   xmlns:rdf="http://www.w3.org/1999/02/22-rdf-syntax-ns#"
   xmlns:svg="http://www.w3.org/2000/svg"
   xmlns="http://www.w3.org/2000/svg"
   viewBox="0 0 343.93701 230.55116"
   height="230.55116"
   width="343.93701"
   xml:space="preserve"
   id="svg2"
   version="1.1"><metadata
     id="metadata8"><rdf:RDF><cc:Work
         rdf:about=""><dc:format>image/svg+xml</dc:format><dc:type
           rdf:resource="http://purl.org/dc/dcmitype/StillImage" /></cc:Work></rdf:RDF></metadata><defs
     id="defs6" /><g
     transform="matrix(1.3333333,0,0,1.3333333,0,7.7637792e-6)"
     id="g10"><g
       id="g12"><path
         id="path14"
         style="fill:#241f1c;fill-opacity:1;fill-rule:nonzero;stroke:none"
         d="M 0,0 H 258 V 173 H 0 Z" /><path
         id="path16"
         style="fill:#ffffff;fill-opacity:1;fill-rule:nonzero;stroke:none"
         d="m 118.133,49.5 c -0.149,0 -0.27,0.086 -0.36,0.262 -0.101,0.195 0.02,0.394 0.59,0.976 0.313,0.321 0.532,0.582 0.532,0.633 0,0.051 -0.043,0.211 -0.098,0.356 -0.082,0.222 -0.098,0.367 -0.102,0.832 0,0.66 0.059,0.898 0.371,1.507 0.164,0.325 0.289,0.489 0.614,0.813 0.636,0.637 1.078,0.828 2.125,0.918 0.644,0.055 1.105,0.187 1.73,0.496 0.863,0.426 1.637,1.012 2.492,1.895 0.621,0.64 1.688,2.019 1.688,2.183 0,0.121 -0.235,0.555 -0.965,1.793 -0.277,0.473 -0.832,1.445 -1.238,2.16 -0.407,0.719 -0.813,1.43 -0.903,1.578 -0.218,0.348 -0.25,0.45 -0.164,0.575 0.106,0.164 0.618,0.488 0.746,0.472 0.094,-0.011 0.336,-0.312 1.247,-1.554 2,-2.719 2.402,-3.25 2.468,-3.25 0.032,0 0.25,0.296 0.485,0.664 0.429,0.664 2.57,3.937 2.851,4.347 0.117,0.172 0.141,0.239 0.106,0.301 -0.028,0.047 -0.075,0.086 -0.11,0.086 -0.039,0 -0.172,0.07 -0.304,0.156 -0.129,0.09 -0.602,0.403 -1.047,0.699 -0.446,0.293 -1.004,0.653 -1.246,0.79 -0.59,0.339 -0.594,0.359 -0.125,0.628 0.16,0.094 0.359,0.227 0.441,0.297 0.078,0.071 0.172,0.129 0.199,0.129 0.032,0 0.207,-0.113 0.395,-0.25 0.183,-0.14 0.406,-0.289 0.496,-0.336 0.215,-0.109 1.808,-1.074 1.863,-1.129 0.121,-0.117 0.211,-0.011 0.86,1.028 0.929,1.5 1.503,2.375 1.945,2.972 0.445,0.61 0.488,0.336 0.09,-0.597 -0.125,-0.297 -0.614,-1.305 -1.082,-2.242 -0.469,-0.938 -0.84,-1.731 -0.825,-1.766 0.012,-0.035 0.059,-0.078 0.106,-0.094 0.324,-0.117 3.941,-2.496 5.824,-3.832 0.442,-0.312 0.985,-0.699 1.203,-0.851 0.223,-0.157 0.446,-0.352 0.496,-0.434 0.297,-0.484 0.129,-1.188 -0.39,-1.648 -0.598,-0.528 -0.746,-0.571 -1.211,-0.336 -0.449,0.218 -2.531,1.617 -4.449,2.984 -2.395,1.703 -2.372,1.684 -2.391,2.187 -0.004,0.149 -0.012,0.293 -0.012,0.317 -0.008,0.094 -0.176,-0.145 -0.254,-0.36 -0.043,-0.125 -0.664,-1.386 -1.379,-2.804 -1.14,-2.274 -1.289,-2.59 -1.242,-2.676 0.114,-0.215 0.742,-0.957 1.344,-1.578 0.973,-1.008 1.781,-1.621 2.82,-2.141 0.614,-0.308 1.164,-0.468 1.86,-0.543 0.98,-0.101 1.511,-0.25 2.05,-0.562 0.543,-0.317 1.098,-1.02 1.305,-1.656 0.102,-0.317 0.121,-0.45 0.125,-0.954 0.004,-0.488 -0.012,-0.636 -0.098,-0.902 -0.128,-0.406 -0.375,-0.785 -0.722,-1.109 -0.539,-0.496 -1.238,-0.723 -1.934,-0.625 -0.633,0.09 -1.109,0.297 -1.613,0.707 -0.207,0.168 -0.273,0.199 -0.371,0.176 -0.348,-0.086 -0.36,-0.086 -0.524,0.078 -0.195,0.199 -0.211,0.398 -0.043,0.589 0.059,0.075 0.11,0.133 0.11,0.137 0,0.004 -0.055,0.145 -0.125,0.321 -0.074,0.171 -0.153,0.445 -0.18,0.605 -0.195,1.098 -0.781,2.332 -1.57,3.297 -0.262,0.32 -1.094,1.113 -1.61,1.535 -0.964,0.785 -2.027,1.531 -2.109,1.48 -0.031,-0.019 -0.371,-0.269 -0.754,-0.558 -1.316,-0.988 -2.32,-1.945 -2.773,-2.637 -0.539,-0.828 -0.86,-1.695 -1.133,-3.086 -0.203,-1.039 -0.445,-1.547 -1.016,-2.129 -1.008,-1.023 -2.379,-1.199 -3.492,-0.441 -0.164,0.109 -0.32,0.199 -0.351,0.199 -0.028,0 -0.293,-0.242 -0.586,-0.539 -0.457,-0.461 -0.559,-0.539 -0.676,-0.539 z m 3,1.254 c 0.695,-0.008 1.406,0.359 1.887,0.973 0.785,1 0.746,2.336 -0.086,2.988 -0.832,0.656 -2.141,0.375 -2.922,-0.621 -0.785,-0.996 -0.746,-2.336 0.086,-2.989 0.285,-0.226 0.648,-0.347 1.035,-0.351 z m 16.219,0.262 c 0.39,0.004 0.75,0.125 1.039,0.351 0.832,0.653 0.871,1.992 0.086,2.988 -0.782,0.997 -2.09,1.278 -2.922,0.625 -0.832,-0.656 -0.871,-1.992 -0.086,-2.988 0.48,-0.617 1.191,-0.984 1.883,-0.976 z m -8.391,8.976 c 0.184,0 0.332,0.164 0.332,0.367 0,0.2 -0.148,0.364 -0.332,0.364 -0.184,0 -0.332,-0.164 -0.332,-0.364 0,-0.203 0.148,-0.367 0.332,-0.367 z m -11.766,1.078 c -0.465,0.008 -0.89,0.364 -1.004,0.895 -0.066,0.308 0,0.562 0.254,0.969 0.203,0.332 1.207,1.414 1.438,1.558 0.074,0.043 0.176,0.082 0.222,0.082 0.098,0 0.848,-0.738 1.254,-1.234 0.352,-0.43 0.348,-0.473 -0.113,-0.906 -0.797,-0.75 -1.383,-1.196 -1.726,-1.313 -0.11,-0.035 -0.219,-0.051 -0.325,-0.051 z m 0.555,1.172 c 0.18,0 0.328,0.164 0.328,0.363 0,0.204 -0.148,0.368 -0.328,0.368 -0.184,0 -0.332,-0.164 -0.332,-0.368 0,-0.199 0.148,-0.363 0.332,-0.363 z m 2.137,0.848 c -0.047,0 -0.219,0.152 -0.391,0.348 -0.168,0.191 -0.504,0.554 -0.746,0.808 -0.242,0.254 -0.437,0.5 -0.437,0.547 0,0.051 0.113,0.191 0.257,0.32 1.051,0.953 5.446,3.871 7.278,4.836 0.484,0.254 0.593,0.254 0.718,0 0.047,-0.097 0.204,-0.394 0.348,-0.66 0.145,-0.266 0.262,-0.523 0.262,-0.574 0,-0.063 -0.074,-0.145 -0.211,-0.238 -1.813,-1.254 -3.953,-2.879 -5.75,-4.375 -1.059,-0.879 -1.235,-1.012 -1.328,-1.012 z m 3.297,5.508 c -0.012,0 -0.024,0.004 -0.032,0.007 -0.039,0.012 -0.172,0.219 -0.3,0.458 -0.125,0.238 -0.403,0.726 -0.61,1.082 -0.211,0.355 -0.433,0.753 -0.496,0.878 -0.062,0.129 -0.297,0.54 -0.519,0.915 -0.223,0.378 -0.391,0.707 -0.375,0.734 0.035,0.051 0.203,0.058 0.277,0.012 0.027,-0.02 0.234,-0.309 0.465,-0.641 0.23,-0.336 0.562,-0.801 0.738,-1.035 0.934,-1.258 1.422,-1.953 1.422,-2.024 0,-0.148 -0.391,-0.406 -0.57,-0.386 z m 4.308,0.25 c -0.101,0 -0.191,0.101 -0.359,0.406 -0.332,0.594 -0.453,0.859 -0.453,0.988 0,0.153 -0.035,0.129 0.808,0.496 0.164,0.071 0.547,0.242 0.856,0.379 0.531,0.235 0.582,0.25 0.855,0.235 0.379,-0.024 0.481,-0.079 0.688,-0.36 0.125,-0.172 0.168,-0.273 0.168,-0.402 0,-0.262 -0.34,-0.567 -1.02,-0.91 -0.293,-0.149 -0.742,-0.395 -1,-0.551 -0.258,-0.156 -0.504,-0.281 -0.543,-0.281 z m 1.449,1.484 c 0.106,0 0.188,0.094 0.188,0.211 0,0.113 -0.082,0.207 -0.188,0.207 -0.105,0 -0.187,-0.094 -0.187,-0.207 0,-0.117 0.082,-0.211 0.187,-0.211 z m -1.961,0.398 c -0.019,0 -0.039,0 -0.062,0 -0.023,0.004 -0.051,0.012 -0.078,0.02 -0.156,0.055 -0.906,0.766 -1.125,1.066 -0.289,0.403 -0.469,1.024 -0.332,1.164 0.117,0.114 0.246,0.04 0.375,-0.214 0.254,-0.504 0.824,-1.016 1.484,-1.34 0.223,-0.106 0.434,-0.227 0.473,-0.266 0.058,-0.058 0.055,-0.078 -0.047,-0.152 -0.059,-0.047 -0.242,-0.137 -0.402,-0.195 -0.133,-0.051 -0.215,-0.075 -0.286,-0.083 z" /><path
         id="path18"
         style="fill:#ffffff;fill-opacity:1;fill-rule:nonzero;stroke:none"
         d="m 158.23,92.145 c -0.644,0 -1.582,0.261 -2.32,0.656 -1.59,0.844 -2.715,2.293 -3.117,4.015 -0.102,0.434 -0.117,0.602 -0.117,1.266 -0.004,1.117 0.144,1.777 0.625,2.758 0.336,0.691 0.707,1.191 1.472,1.984 0.922,0.953 1.165,1.336 1.36,2.145 0.125,0.504 0.137,1.457 0.023,1.91 -0.336,1.351 -1.535,2.344 -3.172,2.625 -0.656,0.109 -0.664,0.125 -0.644,1.223 l 0.015,0.8 0.125,0.11 c 0.153,0.133 0.375,0.14 1.004,0.039 1.551,-0.25 3.039,-1.215 3.922,-2.539 0.696,-1.043 0.977,-1.977 0.977,-3.239 0,-0.757 -0.082,-1.312 -0.293,-1.949 -0.324,-0.972 -0.77,-1.66 -1.695,-2.613 -1.157,-1.191 -1.454,-1.734 -1.586,-2.91 -0.094,-0.821 0.062,-1.602 0.449,-2.254 0.59,-0.988 1.746,-1.707 3.031,-1.883 0.184,-0.023 0.281,-0.066 0.375,-0.16 l 0.125,-0.125 V 93.23 c 0,-1.015 -0.031,-1.082 -0.559,-1.085 z m -56.617,0.156 c -0.476,0 -0.953,0.027 -1.226,0.082 -2.449,0.496 -4.34,2.277 -4.973,4.683 -0.121,0.465 -0.137,0.614 -0.156,1.364 -0.028,0.988 0.039,1.5 0.281,2.234 0.309,0.93 0.785,1.719 1.473,2.43 1.043,1.082 2.386,1.754 3.867,1.922 0.836,0.097 2,-0.028 2.809,-0.297 1.808,-0.606 3.328,-2.117 3.968,-3.949 0.485,-1.383 0.453,-3.102 -0.078,-4.442 -0.812,-2.043 -2.57,-3.508 -4.738,-3.945 -0.274,-0.055 -0.75,-0.082 -1.227,-0.082 z m 43.153,0.297 c -4.918,0 -4.887,-0.004 -5.024,0.175 -0.043,0.055 -0.054,2.102 -0.054,9.239 v 9.164 l 0.097,0.105 0.098,0.102 h 10.332 l 0.109,-0.11 c 0.11,-0.109 0.11,-0.117 0.11,-0.968 0,-0.84 0,-0.86 -0.11,-0.985 l -0.109,-0.125 -4.145,-0.023 -4.148,-0.024 v -8.355 l 4.351,-0.023 4.352,-0.02 0.086,-0.109 c 0.078,-0.094 0.086,-0.188 0.086,-0.961 0,-0.86 -0.02,-0.989 -0.168,-1.059 -0.047,-0.023 -2.024,-0.051 -4.395,-0.062 l -4.312,-0.024 -0.024,-3.68 h 3.782 c 3.511,0 3.797,-0.007 3.941,-0.078 0.086,-0.047 0.184,-0.132 0.215,-0.195 0.07,-0.144 0.078,-1.504 0.008,-1.711 -0.102,-0.289 0.172,-0.273 -5.078,-0.273 z m 23.14,0 c -0.676,0 -0.804,0.035 -0.929,0.261 -0.055,0.09 -1.571,4.176 -3.375,9.075 -2.52,6.847 -3.278,8.953 -3.278,9.109 0,0.156 0.024,0.215 0.102,0.27 0.082,0.058 0.258,0.07 1.008,0.07 0.855,0 0.918,-0.004 1.031,-0.094 0.066,-0.051 0.148,-0.148 0.183,-0.215 0.079,-0.156 0.504,-1.355 1.227,-3.48 0.309,-0.906 0.59,-1.664 0.617,-1.684 0.074,-0.047 6.633,-0.043 6.707,0.004 0.031,0.02 0.34,0.875 0.688,1.906 0.879,2.59 1.121,3.231 1.293,3.414 l 0.14,0.153 1.922,-0.024 0.09,-0.121 c 0.082,-0.109 0.082,-0.14 0.031,-0.359 -0.031,-0.133 -0.808,-2.297 -1.726,-4.805 -0.918,-2.508 -2.36,-6.461 -3.203,-8.785 -0.844,-2.32 -1.567,-4.289 -1.606,-4.375 -0.129,-0.27 -0.273,-0.32 -0.922,-0.32 z m -56.027,0.004 c -0.316,0 -0.496,0.015 -0.563,0.043 -0.285,0.117 -0.265,-0.629 -0.265,9.378 v 9.141 l 0.113,0.109 0.109,0.11 h 11.434 l 0.109,-0.106 c 0.149,-0.148 0.168,-0.312 0.153,-1.129 -0.016,-0.699 -0.016,-0.703 -0.141,-0.828 l -0.125,-0.125 -9.414,-0.047 -0.023,-8.16 -0.024,-8.164 -0.101,-0.101 c -0.098,-0.098 -0.141,-0.106 -0.899,-0.118 -0.137,-0.003 -0.258,-0.003 -0.363,-0.003 z m 15.074,0 c -0.137,-0.004 -0.308,0 -0.519,0.003 l -0.801,0.012 -0.11,0.129 -0.109,0.125 v 18.324 l 0.117,0.094 c 0.121,0.094 0.121,0.094 5.821,0.094 h 5.703 l 0.238,-0.238 v -0.848 c 0,-0.832 -0.004,-0.852 -0.109,-0.977 l -0.11,-0.125 -4.711,-0.023 -4.715,-0.024 -0.019,-8.128 c -0.02,-6.25 -0.035,-8.153 -0.078,-8.227 -0.078,-0.133 -0.188,-0.18 -0.598,-0.191 z m -42.66,0.003 c -0.871,0 -1.426,0.008 -1.457,0.012 -0.055,0.016 -0.141,0.071 -0.191,0.125 -0.09,0.098 -0.09,0.117 -0.09,9.27 0,9.172 0,9.176 0.093,9.273 0.086,0.094 0.122,0.098 0.981,0.098 0.957,0 1.004,-0.012 1.09,-0.242 0.031,-0.082 0.047,-1.645 0.047,-4.707 v -4.579 h 8.32 l 0.129,-0.132 0.133,-0.133 v -0.852 c 0,-0.797 -0.004,-0.859 -0.09,-0.953 -0.051,-0.055 -0.098,-0.101 -0.102,-0.109 -0.008,-0.008 -1.89,-0.02 -4.187,-0.035 l -4.18,-0.024 -0.012,-2.379 -0.011,-2.383 h 3.711 c 4.039,0 3.933,0.004 4.05,-0.253 0.036,-0.071 0.055,-0.414 0.055,-0.922 0,-0.789 -0.004,-0.813 -0.109,-0.934 l -0.11,-0.129 -4.711,-0.012 c -1.297,-0.003 -2.488,-0.003 -3.359,0 z m 17.375,1.778 c 0.336,0.008 0.672,0.039 0.918,0.105 1.68,0.442 2.902,1.918 3.086,3.727 0.09,0.851 -0.063,1.664 -0.449,2.449 -0.496,1.008 -1.414,1.777 -2.504,2.102 -0.352,0.105 -1.449,0.152 -1.84,0.082 -0.645,-0.114 -1.414,-0.481 -1.926,-0.914 -0.812,-0.684 -1.32,-1.672 -1.449,-2.829 -0.117,-1.027 0.184,-2.167 0.785,-3.007 0.574,-0.805 1.488,-1.41 2.453,-1.633 0.25,-0.059 0.586,-0.086 0.926,-0.082 z m 66.199,1.781 c 0.074,0 1.285,3.402 1.246,3.504 -0.039,0.102 -2.457,0.094 -2.496,-0.004 -0.012,-0.039 0.031,-0.226 0.098,-0.418 0.836,-2.379 1.101,-3.082 1.152,-3.082 z m -0.019,5.781 c 1.574,0 2.054,0.012 2.082,0.055 0.07,0.117 0.55,1.586 0.531,1.625 -0.016,0.02 -1.191,0.035 -2.617,0.035 -2.082,0 -2.598,-0.012 -2.598,-0.058 0,-0.051 0.438,-1.372 0.52,-1.579 0.031,-0.074 0.172,-0.078 2.082,-0.078 z m -71.918,7.27 -0.141,0.117 -0.137,0.117 v 0.856 c 0,0.851 0,0.859 0.11,0.968 l 0.113,0.11 h 11.93 l 0.109,-0.11 c 0.109,-0.109 0.113,-0.121 0.113,-0.953 v -0.84 l -0.265,-0.265 z" /><path
         id="path20"
         style="fill:#ffffff;fill-opacity:1;fill-rule:nonzero;stroke:none"
         d="m 148.215,77.664 c -0.36,-0.004 -0.305,0.434 -0.317,5.168 -0.011,4.445 -0.003,5.023 0.059,5.121 0.066,0.098 0.094,0.106 0.563,0.106 0.39,0 0.511,-0.016 0.57,-0.071 0.062,-0.066 0.07,-0.59 0.07,-5.093 0,-5.879 0.082,-5.207 -0.629,-5.207 -0.133,0 -0.234,-0.024 -0.316,-0.024 z m -47.922,0.027 c -1.191,0 -1.387,0.008 -1.449,0.071 -0.067,0.062 -0.071,0.59 -0.071,5.129 0,3.875 0.012,5.07 0.055,5.113 0.086,0.09 3.875,0.074 4.262,-0.016 0.906,-0.215 1.672,-0.914 1.961,-1.793 0.097,-0.308 0.109,-0.414 0.105,-1.047 -0.008,-0.804 -0.086,-1.183 -0.359,-1.753 -0.297,-0.622 -0.934,-1.282 -1.563,-1.622 l -0.144,-0.078 0.215,-0.265 c 0.773,-0.95 0.734,-2.215 -0.094,-3.035 -0.152,-0.153 -0.406,-0.344 -0.563,-0.422 -0.457,-0.243 -0.793,-0.282 -2.355,-0.282 z m 34.449,0 c -2.293,0 -2.629,0.008 -2.715,0.071 l -0.101,0.07 v 5.023 c 0,3.379 0.015,5.055 0.047,5.114 0.043,0.086 0.125,0.09 2.929,0.09 2.805,0 2.887,-0.004 2.934,-0.09 0.023,-0.047 0.047,-0.293 0.047,-0.539 0,-0.356 -0.016,-0.473 -0.074,-0.528 -0.063,-0.062 -0.336,-0.07 -2.34,-0.07 h -2.27 l -0.023,-0.105 c -0.016,-0.055 -0.02,-1.082 -0.012,-2.286 l 0.012,-2.179 2.41,-0.028 C 136.91,82.223 138,82.207 138,82.203 c 0.129,-0.219 0.148,-1.039 0.027,-1.156 C 137.98,81 137.453,80.98 135.57,80.965 l -2.394,-0.024 -0.012,-0.949 c -0.008,-0.664 0.004,-0.969 0.039,-1.012 0.043,-0.05 0.422,-0.062 2.152,-0.062 1.571,0 2.114,-0.016 2.153,-0.055 0.035,-0.035 0.055,-0.222 0.055,-0.543 0,-0.453 -0.004,-0.496 -0.102,-0.558 -0.086,-0.063 -0.422,-0.071 -2.715,-0.071 z m 20.082,0 c -0.25,0 -0.359,0.02 -0.433,0.079 -0.118,0.097 -3.731,9.863 -3.731,10.089 0,0.082 0.028,0.157 0.059,0.168 0.129,0.051 1.062,0.032 1.14,-0.027 0.079,-0.059 0.227,-0.445 0.778,-2.047 l 0.308,-0.898 3.727,0.023 0.469,1.36 c 0.257,0.746 0.507,1.414 0.558,1.476 0.086,0.117 0.106,0.121 0.625,0.133 0.559,0.016 0.66,-0.012 0.66,-0.176 0,-0.051 -0.644,-1.844 -1.429,-3.988 -0.782,-2.141 -1.594,-4.367 -1.801,-4.942 -0.262,-0.738 -0.406,-1.078 -0.484,-1.148 -0.094,-0.09 -0.165,-0.105 -0.446,-0.105 z m -36.754,0 c -1.644,0 -1.882,0.008 -1.945,0.071 -0.062,0.062 -0.07,0.59 -0.07,5.093 0,3.379 0.015,5.055 0.047,5.114 0.043,0.082 0.097,0.09 0.558,0.09 0.336,0 0.531,-0.02 0.567,-0.055 0.039,-0.039 0.054,-0.336 0.054,-1.039 0,-0.735 0.016,-1 0.059,-1.031 0.031,-0.028 0.207,-0.063 0.394,-0.079 0.461,-0.042 1.094,-0.214 1.59,-0.429 0.297,-0.125 0.422,-0.16 0.453,-0.125 0.024,0.027 0.309,0.609 0.633,1.289 0.32,0.68 0.621,1.289 0.664,1.351 0.078,0.122 0.078,0.122 0.653,0.106 l 0.578,-0.012 0.015,-0.113 c 0.008,-0.074 -0.257,-0.672 -0.761,-1.707 -0.426,-0.875 -0.774,-1.617 -0.774,-1.649 -0.004,-0.031 0.121,-0.179 0.27,-0.328 0.972,-0.972 1.547,-2.336 1.547,-3.672 0,-0.839 -0.211,-1.324 -0.864,-1.972 -0.308,-0.309 -0.472,-0.43 -0.777,-0.582 -0.621,-0.305 -0.762,-0.321 -2.891,-0.321 z m 23.782,0 c -1.641,0 -1.879,0.008 -1.942,0.071 -0.066,0.062 -0.074,0.59 -0.074,5.093 0,3.379 0.016,5.055 0.047,5.114 0.043,0.082 0.101,0.09 0.562,0.09 0.336,0 0.532,-0.02 0.567,-0.055 0.039,-0.039 0.054,-0.336 0.054,-1.039 0,-0.735 0.012,-1 0.055,-1.031 0.031,-0.028 0.211,-0.063 0.399,-0.079 0.46,-0.042 1.093,-0.214 1.589,-0.429 0.293,-0.125 0.422,-0.16 0.454,-0.125 0.023,0.027 0.32,0.633 0.66,1.347 0.34,0.711 0.652,1.325 0.695,1.356 0.059,0.039 0.234,0.055 0.625,0.043 0.547,-0.012 0.547,-0.012 0.562,-0.125 0.008,-0.074 -0.261,-0.68 -0.761,-1.715 -0.43,-0.879 -0.778,-1.617 -0.778,-1.641 0,-0.023 0.145,-0.195 0.325,-0.378 0.625,-0.653 1.093,-1.477 1.339,-2.364 0.161,-0.582 0.208,-1.574 0.09,-1.976 -0.203,-0.711 -0.867,-1.489 -1.574,-1.836 -0.621,-0.305 -0.766,-0.321 -2.894,-0.321 z m -31.653,0.004 c -0.191,0.004 -0.383,0.028 -0.426,0.071 -0.043,0.043 -3.351,8.968 -3.64,9.82 -0.074,0.223 -0.082,0.301 -0.043,0.379 0.051,0.09 0.082,0.094 0.605,0.082 0.524,-0.012 0.551,-0.016 0.633,-0.125 0.047,-0.063 0.297,-0.727 0.555,-1.477 l 0.472,-1.367 1.864,-0.012 1.867,-0.011 0.305,0.898 c 0.543,1.59 0.664,1.91 0.757,2.008 0.082,0.09 0.137,0.098 0.633,0.098 0.489,0 0.547,-0.008 0.586,-0.09 0.067,-0.117 0.102,-0.008 -1.578,-4.594 -0.801,-2.191 -1.586,-4.336 -1.742,-4.77 -0.211,-0.578 -0.313,-0.804 -0.391,-0.855 -0.062,-0.043 -0.261,-0.059 -0.457,-0.055 z m 14.977,0 c -0.598,-0.004 -0.832,0.012 -0.871,0.043 -0.055,0.047 -0.067,0.754 -0.067,5.157 0,2.804 0.016,5.117 0.032,5.132 0.05,0.055 3.945,0.036 4.207,-0.019 0.132,-0.028 0.41,-0.129 0.613,-0.227 0.668,-0.32 1.176,-0.898 1.41,-1.609 0.105,-0.32 0.121,-0.434 0.117,-0.957 -0.004,-0.844 -0.168,-1.508 -0.515,-2.102 -0.211,-0.355 -0.907,-1.043 -1.258,-1.238 -0.156,-0.09 -0.285,-0.18 -0.285,-0.199 0,-0.02 0.086,-0.133 0.187,-0.25 0.399,-0.453 0.563,-0.949 0.531,-1.617 -0.019,-0.391 -0.043,-0.508 -0.164,-0.766 -0.246,-0.547 -0.8,-1.035 -1.383,-1.23 -0.261,-0.086 -0.414,-0.098 -1.824,-0.114 -0.285,-0.004 -0.527,-0.004 -0.73,-0.004 z m 17.262,1.215 c 0.679,0 1.402,0.024 1.582,0.078 0.8,0.239 1.238,0.918 1.16,1.813 -0.086,1.047 -0.625,2.113 -1.383,2.742 -0.555,0.461 -1.238,0.797 -1.867,0.914 -0.453,0.086 -0.754,0.102 -0.809,0.043 -0.043,-0.039 -0.055,-0.727 -0.055,-2.746 0,-1.481 0.012,-2.727 0.028,-2.766 0.019,-0.054 0.66,-0.078 1.344,-0.078 z m -41.536,0.008 c 0.731,0 0.875,0.012 1.032,0.086 0.371,0.172 0.57,0.519 0.566,1 0,0.406 -0.211,0.758 -0.566,0.953 -0.114,0.059 -0.305,0.078 -1.008,0.09 -0.774,0.012 -0.871,0.008 -0.899,-0.063 -0.035,-0.093 -0.035,-1.898 0,-1.996 0.024,-0.062 0.145,-0.07 0.875,-0.07 z m 17.168,0.004 c 0.184,0 0.414,0 0.692,0.004 l 1.406,0.015 0.297,0.141 c 0.375,0.18 0.609,0.414 0.789,0.789 0.133,0.274 0.141,0.332 0.137,0.75 -0.008,0.52 -0.09,0.93 -0.293,1.418 -0.504,1.203 -1.594,2.117 -2.875,2.399 -0.434,0.097 -0.828,0.125 -0.887,0.062 -0.066,-0.062 -0.078,-5.43 -0.016,-5.527 0.024,-0.035 0.196,-0.051 0.75,-0.051 z m 7.418,0.019 h 1.836 l 0.196,0.137 c 0.285,0.199 0.425,0.5 0.425,0.906 -0.004,0.489 -0.187,0.782 -0.613,0.977 -0.184,0.082 -0.297,0.09 -1.016,0.094 -0.613,0 -0.812,-0.016 -0.828,-0.059 -0.011,-0.031 -0.019,-0.508 -0.011,-1.058 z m -15.254,0.793 c 0.008,0.004 0.02,0.008 0.028,0.016 0.058,0.059 0.652,1.77 0.625,1.809 -0.032,0.054 -1.278,0.054 -1.309,0.004 -0.023,-0.04 0.574,-1.766 0.629,-1.817 0.008,-0.008 0.016,-0.012 0.027,-0.012 z m 44.594,0.024 c 0.008,0 0.012,0 0.02,0.008 0.047,0.047 0.632,1.691 0.632,1.773 0,0.047 -0.14,0.063 -0.66,0.063 -0.574,0 -0.656,-0.012 -0.656,-0.075 0,-0.078 0.52,-1.566 0.598,-1.718 0.019,-0.036 0.047,-0.055 0.066,-0.051 z m -54.394,2.531 c 0.359,0.004 0.886,0.051 1.226,0.129 1.504,0.336 2.344,1.391 2.289,2.879 -0.015,0.394 -0.035,0.504 -0.144,0.723 -0.223,0.453 -0.598,0.714 -1.168,0.808 -0.426,0.067 -2.512,0.063 -2.582,-0.008 -0.067,-0.066 -0.078,-4.382 -0.012,-4.488 0.02,-0.035 0.176,-0.047 0.391,-0.043 z m 25.656,0 c 0.676,0.024 1.492,0.219 1.969,0.481 0.433,0.242 0.859,0.687 1.058,1.105 0.219,0.469 0.281,0.758 0.281,1.316 -0.003,0.387 -0.023,0.528 -0.105,0.739 -0.191,0.484 -0.648,0.816 -1.246,0.902 -0.352,0.051 -2.445,0.055 -2.524,0.004 -0.046,-0.027 -0.054,-0.516 -0.046,-2.281 l 0.011,-2.25 0.321,-0.016 c 0.089,-0.004 0.183,-0.004 0.281,0 z m -15.86,0.586 h 1.125 l 0.145,0.398 c 0.078,0.219 0.141,0.422 0.141,0.454 0,0.043 -0.325,0.054 -1.411,0.054 -1.136,0 -1.41,-0.008 -1.41,-0.058 0,-0.055 0.164,-0.559 0.254,-0.77 0.028,-0.074 0.125,-0.078 1.156,-0.078 z m 43.961,0.004 c 0.157,0 0.368,0.004 0.641,0.004 l 1.121,0.015 0.129,0.364 c 0.07,0.199 0.129,0.398 0.129,0.441 0,0.074 -0.098,0.082 -1.387,0.082 -0.761,0 -1.394,-0.019 -1.41,-0.043 -0.023,-0.039 0.152,-0.597 0.246,-0.773 0.039,-0.071 0.059,-0.09 0.531,-0.09 z" /><path
         id="path22"
         style="fill:#ffffff;fill-opacity:1;fill-rule:nonzero;stroke:none"
         d="m 150.797,60.535 c -0.383,-0.004 -0.75,0.004 -1.035,0.031 -0.922,0.086 -1.258,0.207 -2.09,0.758 -0.617,0.41 -1.445,1.207 -1.789,1.723 -0.442,0.664 -0.77,1.426 -0.938,2.183 -0.113,0.508 -0.132,1.504 -0.043,2.04 0.352,2.121 1.84,3.617 3.977,4.011 0.578,0.106 0.691,0.106 1.281,0 1.051,-0.183 1.762,-0.554 2.445,-1.269 0.395,-0.418 0.641,-0.828 0.833,-1.387 0.136,-0.398 0.148,-0.469 0.148,-1.035 0,-0.68 -0.078,-1.051 -0.344,-1.61 -0.215,-0.449 -0.754,-0.972 -1.254,-1.218 -0.863,-0.422 -1.765,-0.473 -2.457,-0.141 -0.281,0.133 -0.64,0.422 -0.593,0.473 0.019,0.015 0.25,0 0.519,-0.039 1.207,-0.18 1.941,0 2.559,0.621 0.445,0.441 0.652,0.949 0.652,1.601 0,0.446 -0.09,0.782 -0.348,1.305 -0.402,0.824 -1.164,1.414 -2.047,1.594 -0.406,0.082 -0.625,0.086 -1.027,0.023 -0.695,-0.113 -1.328,-0.437 -1.879,-0.961 -1.312,-1.246 -1.621,-2.972 -0.824,-4.64 0.453,-0.95 1.195,-1.719 2.258,-2.328 0.664,-0.383 2.422,-0.54 3.492,-0.309 1.926,0.41 3.637,1.578 7.309,5 2.488,2.32 4.414,3.703 5.753,4.137 0.422,0.136 1.106,0.273 1.356,0.273 0.434,0 1.383,-0.289 1.848,-0.562 0.664,-0.391 0.98,-0.774 1.211,-1.469 0.121,-0.371 0.136,-0.485 0.14,-0.965 0.004,-0.297 -0.012,-0.57 -0.035,-0.605 -0.023,-0.036 -0.082,-0.192 -0.137,-0.344 -0.347,-0.992 -1.343,-1.621 -2.363,-1.496 -0.504,0.062 -0.863,0.238 -1.246,0.601 -0.297,0.278 -0.43,0.567 -0.434,0.942 0,0.199 0.016,0.32 0.051,0.332 0.027,0.008 0.211,-0.172 0.402,-0.407 0.512,-0.605 0.75,-0.796 1.114,-0.89 0.297,-0.074 0.586,0.008 0.965,0.273 0.457,0.321 0.699,0.688 0.777,1.168 0.117,0.727 -0.395,1.633 -1.133,2.008 -0.738,0.375 -1.738,0.297 -2.742,-0.207 -1.129,-0.566 -2.391,-1.613 -5.106,-4.23 -3.378,-3.254 -5.265,-4.481 -7.449,-4.856 -0.441,-0.074 -1.133,-0.121 -1.777,-0.129 z" /><path
         id="path24"
         style="fill:#ffffff;fill-opacity:1;fill-rule:nonzero;stroke:none"
         d="m 106.816,60.527 c 0.383,-0.004 0.75,0.004 1.036,0.032 0.925,0.086 1.257,0.207 2.089,0.761 0.618,0.407 1.446,1.203 1.789,1.723 0.442,0.66 0.77,1.426 0.938,2.18 0.113,0.511 0.133,1.504 0.043,2.043 -0.352,2.117 -1.84,3.617 -3.977,4.007 -0.578,0.106 -0.691,0.106 -1.281,0.004 -1.051,-0.187 -1.762,-0.554 -2.445,-1.273 -0.395,-0.418 -0.641,-0.828 -0.832,-1.383 -0.137,-0.398 -0.145,-0.473 -0.149,-1.035 0,-0.68 0.078,-1.055 0.344,-1.609 0.215,-0.45 0.754,-0.977 1.254,-1.219 0.863,-0.422 1.766,-0.477 2.457,-0.145 0.281,0.137 0.641,0.422 0.594,0.473 -0.02,0.019 -0.25,0 -0.52,-0.039 -1.207,-0.176 -1.941,0 -2.558,0.621 -0.446,0.445 -0.649,0.949 -0.649,1.602 0,0.445 0.086,0.785 0.344,1.304 0.402,0.824 1.164,1.414 2.047,1.594 0.406,0.082 0.629,0.09 1.027,0.023 0.696,-0.113 1.328,-0.433 1.879,-0.957 1.313,-1.25 1.621,-2.976 0.824,-4.64 -0.453,-0.953 -1.195,-1.719 -2.257,-2.332 -0.665,-0.379 -2.422,-0.535 -3.493,-0.309 -1.925,0.41 -3.636,1.582 -7.308,5.004 -2.489,2.32 -4.414,3.699 -5.754,4.133 -0.422,0.137 -1.106,0.273 -1.356,0.273 -0.433,0 -1.379,-0.285 -1.847,-0.558 -0.664,-0.391 -0.981,-0.774 -1.211,-1.473 -0.121,-0.367 -0.137,-0.484 -0.141,-0.965 -0.004,-0.297 0.016,-0.57 0.035,-0.605 0.024,-0.035 0.082,-0.192 0.137,-0.344 0.348,-0.988 1.348,-1.621 2.363,-1.496 0.504,0.066 0.864,0.238 1.246,0.601 0.297,0.278 0.43,0.567 0.434,0.946 0.004,0.195 -0.016,0.316 -0.047,0.328 -0.031,0.012 -0.211,-0.172 -0.406,-0.402 -0.508,-0.61 -0.75,-0.801 -1.113,-0.895 -0.293,-0.074 -0.586,0.008 -0.961,0.273 -0.461,0.321 -0.703,0.688 -0.782,1.172 -0.117,0.727 0.395,1.629 1.133,2.004 0.738,0.375 1.738,0.301 2.742,-0.203 1.129,-0.57 2.391,-1.613 5.106,-4.23 3.383,-3.254 5.265,-4.485 7.449,-4.86 0.441,-0.074 1.137,-0.121 1.777,-0.129 z" /><path
         id="path26"
         style="fill:#ffffff;fill-opacity:1;fill-rule:nonzero;stroke:none"
         d="m 126.18,123.395 c -0.422,-0.094 -0.774,-0.403 -0.953,-0.844 -0.106,-0.262 -0.106,-0.278 -0.106,-1.973 0,-1.664 0.004,-1.719 0.102,-1.957 0.132,-0.332 0.312,-0.539 0.601,-0.699 0.219,-0.121 0.281,-0.133 0.649,-0.133 0.347,0 0.433,0.016 0.629,0.117 0.261,0.141 0.425,0.305 0.55,0.555 0.18,0.359 0.2,0.598 0.184,2.273 -0.016,1.539 -0.02,1.606 -0.117,1.852 -0.125,0.305 -0.367,0.57 -0.645,0.699 -0.23,0.11 -0.656,0.16 -0.894,0.11 z m 0.601,-0.731 c 0.274,-0.215 0.274,-0.226 0.285,-1.996 0.012,-1.441 0.004,-1.645 -0.066,-1.844 -0.098,-0.281 -0.266,-0.41 -0.523,-0.402 -0.254,0.004 -0.411,0.117 -0.508,0.371 -0.074,0.187 -0.082,0.375 -0.082,1.828 0,1.59 0.004,1.625 0.101,1.809 0.055,0.105 0.145,0.218 0.2,0.258 0.148,0.105 0.449,0.089 0.593,-0.024 z m -7.801,0.293 v -0.387 l 0.875,-1.25 c 0.485,-0.691 0.922,-1.351 0.977,-1.472 0.07,-0.157 0.098,-0.313 0.102,-0.575 0.004,-0.558 -0.18,-0.839 -0.567,-0.851 -0.344,-0.008 -0.558,0.281 -0.613,0.832 l -0.031,0.332 -0.371,0.008 -0.372,0.004 v -0.293 c 0,-0.645 0.286,-1.184 0.75,-1.41 0.176,-0.086 0.29,-0.106 0.622,-0.106 0.351,0 0.437,0.016 0.66,0.125 0.289,0.137 0.457,0.313 0.593,0.613 0.079,0.168 0.094,0.289 0.094,0.7 -0.004,0.769 -0.125,1.007 -1.254,2.449 -0.336,0.429 -0.609,0.808 -0.609,0.844 0,0.043 0.199,0.058 0.934,0.07 l 0.933,0.012 v 0.718 l -1.363,0.012 -1.36,0.012 z m 12.329,-0.012 v -0.402 l 0.816,-1.164 c 0.449,-0.641 0.875,-1.274 0.945,-1.41 0.16,-0.305 0.223,-0.668 0.168,-0.969 -0.05,-0.277 -0.152,-0.422 -0.375,-0.531 -0.414,-0.207 -0.789,0.176 -0.789,0.804 0,0.305 -0.051,0.344 -0.433,0.329 l -0.309,-0.016 -0.016,-0.309 c -0.015,-0.386 0.114,-0.836 0.301,-1.066 0.074,-0.086 0.242,-0.215 0.375,-0.289 0.215,-0.121 0.278,-0.133 0.668,-0.133 0.379,0 0.453,0.012 0.668,0.125 0.274,0.145 0.426,0.293 0.551,0.535 0.121,0.239 0.176,0.688 0.125,1.078 -0.063,0.512 -0.285,0.907 -1.141,2.012 -0.41,0.527 -0.734,0.977 -0.718,1 0.011,0.024 0.437,0.039 0.945,0.039 h 0.918 l 0.023,0.106 c 0.016,0.054 0.02,0.222 0.016,0.371 l -0.016,0.265 -1.359,0.012 -1.363,0.012 z m 6.613,-1.691 c 0,-1.149 -0.012,-2.121 -0.027,-2.16 -0.02,-0.051 -0.09,-0.071 -0.262,-0.071 -0.293,0 -0.348,-0.058 -0.332,-0.339 0.015,-0.211 0.023,-0.219 0.265,-0.364 0.141,-0.082 0.329,-0.226 0.418,-0.328 0.157,-0.176 0.176,-0.183 0.434,-0.183 h 0.27 v 5.535 h -0.766 z" /></g></g></svg>